<?xml version="1.0" encoding="utf-8"?>
<!-- Generator: Adobe Illustrator 26.0.2, SVG Export Plug-In . SVG Version: 6.00 Build 0)  -->
<svg version="1.1" id="레이어_1" xmlns="http://www.w3.org/2000/svg" xmlns:xlink="http://www.w3.org/1999/xlink" x="0px"
	 y="0px" viewBox="0 0 874.85 87.13" style="enable-background:new 0 0 874.85 87.13;" xml:space="preserve">
<style type="text/css">
	.st0{fill:#191919;}
	.st1{display:none;fill:#FFFFFF;stroke:#191919;stroke-width:2;stroke-miterlimit:10;}
	.st2{font-family:'Montserrat-Bold';}
	.st3{font-size:120px;}
</style>
<g>
	<path class="st0" d="M134.32,1.58l-27.48,84H85.96L67.48,28.7L48.4,85.58H27.65l-27.6-84h20.16l18.96,59.04l19.8-59.04h18
		l19.2,59.52l19.56-59.52H134.32z"/>
	<path class="st0" d="M222.16,1.58v84h-19.44V51.14h-38.16v34.44h-19.44v-84h19.44V34.7h38.16V1.58H222.16z"/>
	<path class="st0" d="M236.81,43.58c0-24.96,19.44-43.44,45.96-43.44c26.4,0,45.96,18.36,45.96,43.44
		c0,25.08-19.56,43.44-45.96,43.44C256.25,87.02,236.81,68.54,236.81,43.58z M309.04,43.58c0-15.96-11.28-26.88-26.28-26.88
		c-15,0-26.28,10.92-26.28,26.88c0,15.96,11.28,26.88,26.28,26.88C297.76,70.46,309.04,59.54,309.04,43.58z"/>
	<path class="st0" d="M504.28,1.58l-27.48,84h-20.88L437.44,28.7l-19.08,56.88H397.6l-27.6-84h20.16l18.96,59.04l19.8-59.04h18
		l19.2,59.52l19.56-59.52H504.28z"/>
	<path class="st0" d="M580.12,69.98v15.6h-65.04v-84h63.48v15.6H534.4v18.24h39v15.12h-39v19.44H580.12z"/>
	<path class="st0" d="M684.88,67.58h-39l-7.44,18h-19.92l37.44-84h19.2l37.56,84h-20.4L684.88,67.58z M678.76,52.82l-13.32-32.16
		l-13.32,32.16H678.76z"/>
	<path class="st0" d="M775,85.58l-16.2-23.4h-0.96h-16.92v23.4h-19.44v-84h36.36c22.44,0,36.48,11.64,36.48,30.48
		c0,12.6-6.36,21.84-17.28,26.52l18.84,27H775z M756.76,17.42h-15.84V46.7h15.84c11.88,0,17.88-5.52,17.88-14.64
		C774.64,22.82,768.64,17.42,756.76,17.42z"/>
	<path class="st0" d="M874.71,69.98v15.6h-65.04v-84h63.48v15.6H829v18.24h39v15.12h-39v19.44H874.71z"/>
</g>
<text transform="matrix(1 0 0 1 -1.2126 86.5246)" class="st1 st2 st3">WHAT WE DO</text>
<g>
</g>
<g>
</g>
</svg>
