<?xml version="1.0" encoding="utf-8"?>
<!-- Generator: Adobe Illustrator 26.0.2, SVG Export Plug-In . SVG Version: 6.00 Build 0)  -->
<svg version="1.1" id="레이어_1" xmlns="http://www.w3.org/2000/svg" xmlns:xlink="http://www.w3.org/1999/xlink" x="0px"
	 y="0px" viewBox="0 0 878.33 89.27" style="enable-background:new 0 0 878.33 89.27;" xml:space="preserve">
<style type="text/css">
	.st0{display:none;fill:#191919;}
	.st1{font-family:'Montserrat-Bold';}
	.st2{font-size:120px;}
	.st3{fill:#FFFFFF;stroke:#191919;stroke-width:2;stroke-miterlimit:10;}
</style>
<text transform="matrix(1 0 0 1 -2.5931 84.0431)" class="st0 st1 st2">WHO WE ARE</text>
<g>
	<path class="st3" d="M135.7,2.53l-27.48,84H87.34L68.86,29.65L49.79,86.52H29.03l-27.6-84h20.16l18.96,59.04l19.8-59.04h18
		l19.2,59.52L117.1,2.53H135.7z"/>
	<path class="st3" d="M223.54,2.53v84H204.1V52.09h-38.16v34.44h-19.44v-84h19.44v33.12h38.16V2.53H223.54z"/>
	<path class="st3" d="M298.78,68.52h-39l-7.44,18h-19.92l37.44-84h19.2l37.56,84h-20.4L298.78,68.52z M292.66,53.77l-13.32-32.16
		l-13.32,32.16H292.66z"/>
	<path class="st3" d="M348.59,18.37h-26.88V2.53h73.2v15.84h-26.88v68.16h-19.44V18.37z"/>
	<path class="st3" d="M566.26,2.53l-27.48,84H517.9l-18.48-56.88l-19.08,56.88h-20.76l-27.6-84h20.16l18.96,59.04l19.8-59.04h18
		l19.2,59.52l19.56-59.52H566.26z"/>
	<path class="st3" d="M642.1,70.93v15.6h-65.04v-84h63.48v15.6h-44.16v18.24h39v15.12h-39v19.44H642.1z"/>
	<path class="st3" d="M691.54,2.53h38.16c27.48,0,46.32,16.56,46.32,42c0,25.44-18.84,42-46.32,42h-38.16V2.53z M728.74,70.56
		c16.68,0,27.6-9.96,27.6-26.04c0-16.08-10.92-26.04-27.6-26.04h-17.76v52.08H728.74z"/>
	<path class="st3" d="M785.38,44.53c0-24.96,19.44-43.44,45.96-43.44c26.4,0,45.96,18.36,45.96,43.44
		c0,25.08-19.56,43.44-45.96,43.44C804.82,87.96,785.38,69.48,785.38,44.53z M857.62,44.53c0-15.96-11.28-26.88-26.28-26.88
		c-15,0-26.28,10.92-26.28,26.88c0,15.96,11.28,26.88,26.28,26.88C846.34,71.4,857.62,60.49,857.62,44.53z"/>
</g>
<g>
</g>
<g>
</g>
</svg>
