<?xml version="1.0" encoding="utf-8"?>
<!-- Generator: Adobe Illustrator 26.0.2, SVG Export Plug-In . SVG Version: 6.00 Build 0)  -->
<svg version="1.1" id="Layer_1" xmlns="http://www.w3.org/2000/svg" xmlns:xlink="http://www.w3.org/1999/xlink" x="0px" y="0px"
	 viewBox="0 0 561.69 91.55" style="enable-background:new 0 0 561.69 91.55;" xml:space="preserve">
<style type="text/css">
	.st0{fill:#9A999F;}
</style>
<g>
	<g>
		<g>
			<g>
				<path class="st0" d="M12.23,50.46c-1.37,0-2.74-0.52-3.78-1.57c-11.14-11.14-11.14-29.27,0-40.41
					c11.14-11.14,29.27-11.14,40.41,0c2.09,2.09,2.09,5.47,0,7.56c-2.09,2.09-5.47,2.09-7.56,0c-6.97-6.97-18.32-6.97-25.29,0
					c-6.97,6.97-6.97,18.32,0,25.29c2.09,2.09,2.09,5.47,0,7.56C14.97,49.94,13.6,50.46,12.23,50.46z"/>
			</g>
		</g>
		<g>
			<g>
				<path class="st0" d="M26.86,91.55c-7.32,0-14.64-2.78-20.21-8.36c-2.09-2.09-2.09-5.47,0-7.56c2.09-2.09,5.47-2.09,7.56,0
					c6.97,6.97,18.32,6.97,25.29,0c6.97-6.97,6.97-18.32,0-25.29c-2.09-2.09-2.09-5.47,0-7.56c2.09-2.09,5.47-2.09,7.56,0
					c11.14,11.14,11.14,29.27,0,40.41C41.49,88.77,34.18,91.55,26.86,91.55z"/>
			</g>
		</g>
		<g>
			<path class="st0" d="M33.17,29.07c0,2.49-2.02,4.5-4.5,4.5s-4.5-2.02-4.5-4.5c0-2.49,2.02-4.5,4.5-4.5S33.17,26.58,33.17,29.07z"
				/>
		</g>
		<g>
			<circle class="st0" cx="28.66" cy="63.61" r="4.5"/>
		</g>
	</g>
	<g>
		<path class="st0" d="M79.84,69.53c-2.02-1.13-2.02-2.17-0.67-5.17c1.65-3.6,2.32-3.67,4.05-3c3.22,1.35,9,3.15,13.42,3.15
			c7.5,0,12.44-2.32,12.44-7.12c0-3.52-4.57-5.32-10.87-8.02c-5.02-2.18-9.67-3.97-13.57-7.72c-2.77-2.62-4.2-6-4.2-9.97
			c0-11.47,9.82-15.29,19.94-15.29c6.3,0,12.97,2.85,15.59,4.42c1.65,0.98,1.57,1.95,0.38,4.8c-1.42,3.45-2.25,4.05-4.12,3.22
			c-2.92-1.27-7.57-3.3-12.07-3.3c-5.7,0-9.37,2.03-9.37,6.07c0,5.17,9.75,8.47,13.27,9.97c3.82,1.5,7.5,3.07,10.27,5.32
			c3.07,2.55,5.1,5.85,5.1,10.5c0,4.87-2.17,9.45-6.6,12.44c-3.67,2.55-9,3.82-16.19,3.82C90.41,73.66,83.81,71.71,79.84,69.53z"/>
		<path class="st0" d="M136.44,72.68c-1.95,0-4.65-1.95-6.37-3.6c-1.65-1.58-3.22-4.05-3.22-5.7V17.43h35.61
			c2.02,0,2.32,1.73,2.32,4.57c0,2.92-0.3,4.57-2.32,4.57h-25.26v12.97h23.54c2.02,0,2.32,1.73,2.32,4.57c0,2.92-0.3,4.57-2.32,4.57
			h-23.54v13.49c0,1.05,0.6,1.35,1.5,1.35h24.29c2.02,0,2.32,1.73,2.32,4.57c0,2.92-0.3,4.57-2.32,4.57H136.44z"/>
		<path class="st0" d="M181.8,72.68c-1.95,0-4.65-1.95-6.37-3.6c-1.65-1.58-3.22-4.05-3.22-5.7V17.43h35.61
			c2.02,0,2.32,1.73,2.32,4.57c0,2.92-0.3,4.57-2.32,4.57h-25.26v12.97h23.54c2.02,0,2.32,1.73,2.32,4.57c0,2.92-0.3,4.57-2.32,4.57
			h-23.54v13.49c0,1.05,0.6,1.35,1.5,1.35h24.29c2.02,0,2.32,1.73,2.32,4.57c0,2.92-0.3,4.57-2.32,4.57H181.8z"/>
		<path class="st0" d="M217.86,69.53c-2.02-1.13-2.02-2.17-0.67-5.17c1.65-3.6,2.32-3.67,4.05-3c3.22,1.35,9,3.15,13.42,3.15
			c7.5,0,12.44-2.32,12.44-7.12c0-3.52-4.57-5.32-10.87-8.02c-5.02-2.18-9.67-3.97-13.57-7.72c-2.77-2.62-4.2-6-4.2-9.97
			c0-11.47,9.82-15.29,19.94-15.29c6.3,0,12.97,2.85,15.59,4.42c1.65,0.98,1.57,1.95,0.38,4.8c-1.42,3.45-2.25,4.05-4.12,3.22
			c-2.92-1.27-7.57-3.3-12.07-3.3c-5.7,0-9.37,2.03-9.37,6.07c0,5.17,9.75,8.47,13.27,9.97c3.82,1.5,7.5,3.07,10.27,5.32
			c3.07,2.55,5.1,5.85,5.1,10.5c0,4.87-2.17,9.45-6.6,12.44c-3.67,2.55-9,3.82-16.19,3.82C228.43,73.66,221.84,71.71,217.86,69.53z"
			/>
		<path class="st0" d="M519.34,69.53c-2.02-1.13-2.02-2.17-0.67-5.17c1.65-3.6,2.32-3.67,4.05-3c3.22,1.35,9,3.15,13.42,3.15
			c7.5,0,12.44-2.32,12.44-7.12c0-3.52-4.57-5.32-10.87-8.02c-5.02-2.18-9.67-3.97-13.57-7.72c-2.77-2.62-4.2-6-4.2-9.97
			c0-11.47,9.82-15.29,19.94-15.29c6.3,0,12.97,2.85,15.59,4.42c1.65,0.98,1.57,1.95,0.38,4.8c-1.42,3.45-2.25,4.05-4.12,3.22
			c-2.92-1.27-7.57-3.3-12.07-3.3c-5.7,0-9.37,2.03-9.37,6.07c0,5.17,9.75,8.47,13.27,9.97c3.82,1.5,7.5,3.07,10.27,5.32
			c3.07,2.55,5.1,5.85,5.1,10.5c0,4.87-2.17,9.45-6.6,12.44c-3.67,2.55-9,3.82-16.19,3.82C529.91,73.66,523.31,71.71,519.34,69.53z"
			/>
		<path class="st0" d="M270.12,72.68h-10.5l20.32-55.25h7.95l20.24,55.25h-10.57l-3.75-11.09h-19.72L270.12,72.68z M277.16,52.44
			h13.49l-6.6-18.97L277.16,52.44z"/>
		<path class="st0" d="M353.34,62.86c0.38-2.4,0.9-8.32,1.35-10.42l7.65-35.01h10.27l-11.4,50.6c-0.9,3.97-3.37,5.32-7.8,5.32
			c-3.45,0-6.82-1.13-7.8-5.17l-4.87-23.01c-0.52-2.55-0.98-8.02-1.5-10.87c-0.38,3-0.82,7.27-1.65,11.02l-4.8,22.87
			c-0.9,4.35-4.12,5.17-7.72,5.17c-4.5,0-7.04-1.35-7.94-5.32l-11.32-50.6H316l7.72,35.01c0.52,2.25,1.12,7.95,1.42,10.42h0.15
			c0.45-2.32,1.5-8.32,1.87-10.27l6.67-32.84h10.8l6.82,32.61c0.6,2.92,1.35,8.4,1.73,10.49H353.34z"/>
		<path class="st0" d="M388.05,72.68c-1.95,0-4.65-1.95-6.37-3.6c-1.65-1.58-3.22-4.05-3.22-5.7V17.43h10.35v44.46
			c0,1.28,0.53,1.65,1.8,1.65h22.72c2.02,0,2.32,1.73,2.32,4.57c0,2.92-0.3,4.57-2.32,4.57H388.05z"/>
		<path class="st0" d="M427.64,72.68h-10.5l20.32-55.25h7.94l20.24,55.25h-10.57l-3.75-11.09h-19.72L427.64,72.68z M434.69,52.44
			h13.49l-6.6-18.97L434.69,52.44z"/>
		<path class="st0" d="M471.13,17.43h24.51c9.9,0,16.19,5.92,16.19,15.14c0,4.87-2.17,8.54-5.32,10.87
			c3.67,2.02,6.52,5.85,6.52,12.37c0,9.67-6.15,16.87-17.02,16.87h-15.29c-1.95,0-4.65-1.95-6.37-3.6c-1.65-1.58-3.22-4.05-3.22-5.7
			V17.43z M481.47,39.25h13.72c4.27,0,6.3-2.32,6.3-6.75c0-3.75-2.92-5.92-6.9-5.92h-13.12V39.25z M495.04,63.54
			c5.02,0,7.72-2.7,7.72-7.72c0-5.25-2.32-7.5-7.12-7.5h-14.17v13.79c0,1.05,0.45,1.43,1.43,1.43H495.04z"/>
	</g>
</g>
</svg>
