<?xml version="1.0" encoding="utf-8"?>
<!-- Generator: Adobe Illustrator 26.0.2, SVG Export Plug-In . SVG Version: 6.00 Build 0)  -->
<svg version="1.1" id="Layer_1" xmlns="http://www.w3.org/2000/svg" xmlns:xlink="http://www.w3.org/1999/xlink" x="0px" y="0px"
	 viewBox="0 0 559.28 91.57" style="enable-background:new 0 0 559.28 91.57;" xml:space="preserve">
<style type="text/css">
	.st0{fill:url(#SVGID_1_);}
	.st1{fill:url(#SVGID_00000114790256750257947550000005461542379172415360_);}
	.st2{fill:url(#SVGID_00000083067123906302149970000002363189709527892102_);}
	.st3{fill:url(#SVGID_00000078023225913661565160000017009233519141561241_);}
	.st4{fill:#07131B;}
</style>
<g>
	<g>
		<g>
			<g>
				<linearGradient id="SVGID_1_" gradientUnits="userSpaceOnUse" x1="0.018" y1="25.3104" x2="50.3513" y2="25.3104">
					<stop  offset="0" style="stop-color:#55257F"/>
					<stop  offset="0" style="stop-color:#005D98"/>
					<stop  offset="0.9988" style="stop-color:#393B8E"/>
				</linearGradient>
				<path class="st0" d="M12.15,50.48c-1.37,0-2.74-0.52-3.78-1.57C-2.77,37.77-2.77,19.64,8.37,8.5
					c11.14-11.14,29.27-11.14,40.41,0c2.09,2.09,2.09,5.47,0,7.56c-2.09,2.09-5.47,2.09-7.56,0c-6.97-6.97-18.32-6.97-25.29,0
					c-6.97,6.97-6.97,18.32,0,25.29c2.09,2.09,2.09,5.47,0,7.56C14.89,49.96,13.52,50.48,12.15,50.48z"/>
			</g>
		</g>
		<g>
			<g>
				
					<linearGradient id="SVGID_00000057862936245949566660000003456357867216704393_" gradientUnits="userSpaceOnUse" x1="5.0084" y1="66.4028" x2="55.3417" y2="66.4028">
					<stop  offset="0" style="stop-color:#55257F"/>
					<stop  offset="0" style="stop-color:#005D98"/>
					<stop  offset="0.9988" style="stop-color:#393B8E"/>
				</linearGradient>
				<path style="fill:url(#SVGID_00000057862936245949566660000003456357867216704393_);" d="M26.78,91.57
					c-7.32,0-14.64-2.78-20.21-8.36c-2.09-2.09-2.09-5.47,0-7.56c2.09-2.09,5.47-2.09,7.56,0c6.97,6.97,18.32,6.97,25.29,0
					c6.97-6.97,6.97-18.32,0-25.29c-2.09-2.09-2.09-5.47,0-7.56c2.09-2.09,5.47-2.09,7.56,0c11.14,11.14,11.14,29.27,0,40.41
					C41.41,88.78,34.1,91.57,26.78,91.57z"/>
			</g>
		</g>
		<g>
			
				<linearGradient id="SVGID_00000151502200877992144090000010491393832098197930_" gradientUnits="userSpaceOnUse" x1="23.9215" y1="29.0841" x2="33.0655" y2="29.0841">
				<stop  offset="0" style="stop-color:#55257F"/>
				<stop  offset="0" style="stop-color:#02B3DB"/>
				<stop  offset="0.9988" style="stop-color:#31BAD3"/>
			</linearGradient>
			<path style="fill:url(#SVGID_00000151502200877992144090000010491393832098197930_);" d="M33.09,29.08c0,2.49-2.02,4.5-4.5,4.5
				s-4.5-2.02-4.5-4.5c0-2.49,2.02-4.5,4.5-4.5S33.09,26.6,33.09,29.08z"/>
		</g>
		<g>
			
				<linearGradient id="SVGID_00000052825540064682631920000016081582573495006615_" gradientUnits="userSpaceOnUse" x1="253.4315" y1="505.3354" x2="262.7673" y2="505.3354" gradientTransform="matrix(-1 0 0 -1 286.6957 568.9565)">
				<stop  offset="0" style="stop-color:#55257F"/>
				<stop  offset="0" style="stop-color:#02B3DB"/>
				<stop  offset="0.9988" style="stop-color:#31BAD3"/>
			</linearGradient>
			<circle style="fill:url(#SVGID_00000052825540064682631920000016081582573495006615_);" cx="28.58" cy="63.62" r="4.5"/>
		</g>
	</g>
	<g>
		<path class="st4" d="M79.76,69.55c-2.02-1.13-2.02-2.17-0.67-5.17c1.65-3.6,2.32-3.67,4.05-3c3.22,1.35,9,3.15,13.42,3.15
			c7.5,0,12.44-2.32,12.44-7.12c0-3.52-4.57-5.32-10.87-8.02c-5.02-2.18-9.67-3.97-13.57-7.72c-2.77-2.62-4.2-6-4.2-9.97
			c0-11.47,9.82-15.29,19.94-15.29c6.3,0,12.97,2.85,15.59,4.42c1.65,0.98,1.57,1.95,0.38,4.8c-1.42,3.45-2.25,4.05-4.12,3.22
			c-2.92-1.27-7.57-3.3-12.07-3.3c-5.7,0-9.37,2.03-9.37,6.07c0,5.17,9.75,8.47,13.27,9.97c3.82,1.5,7.5,3.07,10.27,5.32
			c3.07,2.55,5.1,5.85,5.1,10.5c0,4.87-2.17,9.45-6.6,12.44c-3.67,2.55-9,3.82-16.19,3.82C90.33,73.67,83.73,71.72,79.76,69.55z"/>
		<path class="st4" d="M136.36,72.7c-1.95,0-4.65-1.95-6.37-3.6c-1.65-1.58-3.22-4.05-3.22-5.7V17.45h35.61
			c2.02,0,2.32,1.73,2.32,4.57c0,2.92-0.3,4.57-2.32,4.57h-25.26v12.97h23.54c2.02,0,2.32,1.73,2.32,4.57c0,2.92-0.3,4.57-2.32,4.57
			h-23.54V62.2c0,1.05,0.6,1.35,1.5,1.35h24.29c2.02,0,2.32,1.73,2.32,4.57c0,2.92-0.3,4.57-2.32,4.57H136.36z"/>
		<path class="st4" d="M181.72,72.7c-1.95,0-4.65-1.95-6.37-3.6c-1.65-1.58-3.22-4.05-3.22-5.7V17.45h35.61
			c2.02,0,2.32,1.73,2.32,4.57c0,2.92-0.3,4.57-2.32,4.57h-25.26v12.97h23.54c2.02,0,2.32,1.73,2.32,4.57c0,2.92-0.3,4.57-2.32,4.57
			h-23.54V62.2c0,1.05,0.6,1.35,1.5,1.35h24.29c2.02,0,2.32,1.73,2.32,4.57c0,2.92-0.3,4.57-2.32,4.57H181.72z"/>
		<path class="st4" d="M217.79,69.55c-2.02-1.13-2.02-2.17-0.67-5.17c1.65-3.6,2.32-3.67,4.05-3c3.22,1.35,9,3.15,13.42,3.15
			c7.5,0,12.44-2.32,12.44-7.12c0-3.52-4.57-5.32-10.87-8.02c-5.02-2.18-9.67-3.97-13.57-7.72c-2.77-2.62-4.2-6-4.2-9.97
			c0-11.47,9.82-15.29,19.94-15.29c6.3,0,12.97,2.85,15.59,4.42c1.65,0.98,1.57,1.95,0.38,4.8c-1.42,3.45-2.25,4.05-4.12,3.22
			c-2.92-1.27-7.57-3.3-12.07-3.3c-5.7,0-9.37,2.03-9.37,6.07c0,5.17,9.75,8.47,13.27,9.97c3.82,1.5,7.5,3.07,10.27,5.32
			c3.07,2.55,5.1,5.85,5.1,10.5c0,4.87-2.17,9.45-6.6,12.44c-3.67,2.55-9,3.82-16.19,3.82C228.35,73.67,221.76,71.72,217.79,69.55z"
			/>
		<path class="st4" d="M519.26,69.55c-2.02-1.13-2.02-2.17-0.67-5.17c1.65-3.6,2.32-3.67,4.05-3c3.22,1.35,9,3.15,13.42,3.15
			c7.5,0,12.44-2.32,12.44-7.12c0-3.52-4.57-5.32-10.87-8.02c-5.02-2.18-9.67-3.97-13.57-7.72c-2.77-2.62-4.2-6-4.2-9.97
			c0-11.47,9.82-15.29,19.94-15.29c6.3,0,12.97,2.85,15.59,4.42c1.65,0.98,1.57,1.95,0.38,4.8c-1.42,3.45-2.25,4.05-4.12,3.22
			c-2.92-1.27-7.57-3.3-12.07-3.3c-5.7,0-9.37,2.03-9.37,6.07c0,5.17,9.75,8.47,13.27,9.97c3.82,1.5,7.5,3.07,10.27,5.32
			c3.07,2.55,5.1,5.85,5.1,10.5c0,4.87-2.17,9.45-6.6,12.44c-3.67,2.55-9,3.82-16.19,3.82C529.83,73.67,523.23,71.72,519.26,69.55z"
			/>
		<path class="st4" d="M270.04,72.7h-10.5l20.32-55.25h7.95l20.24,55.25h-10.57l-3.75-11.09h-19.72L270.04,72.7z M277.09,52.46
			h13.49l-6.6-18.97L277.09,52.46z"/>
		<path class="st4" d="M353.26,62.88c0.38-2.4,0.9-8.32,1.35-10.42l7.65-35.01h10.27l-11.4,50.6c-0.9,3.97-3.37,5.32-7.8,5.32
			c-3.45,0-6.82-1.13-7.8-5.17l-4.87-23.01c-0.52-2.55-0.98-8.02-1.5-10.87c-0.38,3-0.82,7.27-1.65,11.02l-4.8,22.87
			c-0.9,4.35-4.12,5.17-7.72,5.17c-4.5,0-7.04-1.35-7.94-5.32l-11.32-50.6h10.2l7.72,35.01c0.52,2.25,1.12,7.95,1.42,10.42h0.15
			c0.45-2.32,1.5-8.32,1.87-10.27l6.67-32.84h10.8l6.82,32.61c0.6,2.92,1.35,8.4,1.73,10.49H353.26z"/>
		<path class="st4" d="M387.98,72.7c-1.95,0-4.65-1.95-6.37-3.6c-1.65-1.58-3.22-4.05-3.22-5.7V17.45h10.35V61.9
			c0,1.28,0.53,1.65,1.8,1.65h22.72c2.02,0,2.32,1.73,2.32,4.57c0,2.92-0.3,4.57-2.32,4.57H387.98z"/>
		<path class="st4" d="M427.56,72.7h-10.5l20.32-55.25h7.94l20.24,55.25H455l-3.75-11.09h-19.72L427.56,72.7z M434.61,52.46h13.49
			l-6.6-18.97L434.61,52.46z"/>
		<path class="st4" d="M471.05,17.45h24.51c9.9,0,16.19,5.92,16.19,15.14c0,4.87-2.17,8.54-5.32,10.87
			c3.67,2.02,6.52,5.85,6.52,12.37c0,9.67-6.15,16.87-17.02,16.87h-15.29c-1.95,0-4.65-1.95-6.37-3.6c-1.65-1.58-3.22-4.05-3.22-5.7
			V17.45z M481.39,39.26h13.72c4.27,0,6.3-2.32,6.3-6.75c0-3.75-2.92-5.92-6.9-5.92h-13.12V39.26z M494.96,63.55
			c5.02,0,7.72-2.7,7.72-7.72c0-5.25-2.32-7.5-7.12-7.5h-14.17v13.79c0,1.05,0.45,1.43,1.43,1.43H494.96z"/>
	</g>
</g>
</svg>
