<?xml version="1.0" encoding="utf-8"?>
<!-- Generator: Adobe Illustrator 26.0.2, SVG Export Plug-In . SVG Version: 6.00 Build 0)  -->
<svg version="1.1" id="Layer_1" xmlns="http://www.w3.org/2000/svg" xmlns:xlink="http://www.w3.org/1999/xlink" x="0px" y="0px"
	 viewBox="0 0 188.6 51.8" style="enable-background:new 0 0 188.6 51.8;" xml:space="preserve">
<style type="text/css">
	.st0{fill:#28348A;}
	.st1{fill:#F29100;}
</style>
<g>
	<g>
		<g>
			<g>
				<path class="st0" d="M8.3,11.5l0.1-0.2l0.4,0.3L8,12.8L8.3,13L9,12l1.1,0.8l-0.3,0.5l-0.8-0.5l-1.4,2l-0.4-0.3l0.7-1l-0.3-0.2
					l-0.8,1.2l-0.4-0.3L8,12l-0.7-0.5l-1.4,2l-0.4-0.3L7,11c0-0.1,0.1-0.1,0.2-0.1c0.1,0,0.1,0,0.2,0L8.3,11.5z"/>
				<path class="st0" d="M15.1,8.4l-2,1.5C13,10,12.9,10,12.9,10c-0.1,0-0.1,0-0.2-0.1L12,8.8l0.4-0.3l0.2,0.2l1.3-1l-0.3-0.4
					l-2,1.5c-0.1,0.1-0.3,0.1-0.4,0l-0.5-0.7l1.2-0.9l-0.1-0.2l-1.2,0.9l-0.3-0.4L12,6.4l0.7,0.9l-1.2,0.9l0.1,0.2L13.4,7l-0.9-1.2
					L13,5.5L15.1,8.4z M14.2,8.1l-1.3,1L13,9.4l1.3-1L14.2,8.1z"/>
				<path class="st0" d="M20.3,4l0.2-0.1l0.1,0.5l-1.3,0.4l0.2,0.8L19,5.8L18.8,5l-1.4,0.5L17.2,5l2.5-0.8l-0.3-1L17.1,4L17,3.5
					l2.6-0.8c0.1,0,0.2,0,0.2,0c0.1,0,0.1,0.1,0.1,0.2L20.3,4z M18.5,6.3l2.3-0.8L21,6l-2.6,0.9c-0.1,0-0.1,0-0.2,0
					c-0.1,0-0.1-0.1-0.1-0.1l-0.3-1l0.5-0.2L18.5,6.3z"/>
				<path class="st0" d="M25.4,2.6l-0.9,1.2L24,3.4L25.2,2c0,0,0,0,0.1-0.1c0,0,0,0,0.1,0c0,0,0,0,0.1,0c0,0,0.1,0,0.1,0
					c0,0,0.1,0.1,0.1,0.1l1.1,1.5l-0.5,0.4L25.4,2.6z M27.5,2.6l0.5,0l0,0.5l-0.5,0l0,2.4l-2.6,0c-0.1,0-0.1,0-0.1-0.1
					c0,0-0.1-0.1-0.1-0.2l0-1.1l0.6,0l0,0.9l1.7,0L27,1.8l0.6,0L27.5,2.6z"/>
				<path class="st0" d="M34.6,3.4l0.5,0.2L34,7l-0.5-0.2l0.7-2.2l-0.3-0.1l-0.7,2.2l-0.5-0.2L33,5.4l-1.7-0.6
					c-0.2-0.1-0.3-0.2-0.2-0.4l0.6-1.8l1.7,0.6l-0.1,0.4l-1.1-0.4l-0.4,1.2l1.5,0.5l0.6-1.8l0.5,0.2L34,4.1l0.3,0.1L34.6,3.4z"/>
				<path class="st0" d="M41.1,8l0.4,0.3l-0.3,0.4l-0.4-0.3l-1.5,2l-0.4-0.3l0.6-0.8l-1.9-1.4l0.3-0.4l1.9,1.4L41,7.1l0.4,0.3
					L41.1,8z M38.4,6l0.3-0.4l0.7,0.5l0.2-0.2L40,6.2l-0.2,0.2l0.7,0.5l-0.3,0.4L40,7.1c0,0.1,0,0.2,0,0.3c0,0.1-0.1,0.2-0.1,0.3
					c-0.1,0.1-0.2,0.2-0.3,0.2C39.4,7.9,39.3,8,39.2,8c-0.1,0-0.2,0-0.4,0c-0.1,0-0.3-0.1-0.4-0.2c-0.1-0.1-0.2-0.2-0.3-0.3
					c-0.1-0.1-0.1-0.2-0.1-0.3c0-0.1,0-0.2,0-0.3c0-0.1,0.1-0.2,0.1-0.3c0.1-0.1,0.1-0.1,0.2-0.2c0.1-0.1,0.2-0.1,0.2-0.1L38.4,6z
					 M38.7,7.4c0.1,0,0.1,0.1,0.2,0.1c0.1,0,0.1,0,0.2,0c0.1,0,0.1,0,0.2-0.1c0.1,0,0.1-0.1,0.1-0.1c0-0.1,0.1-0.1,0.1-0.2
					c0-0.1,0-0.1,0-0.2c0-0.1,0-0.1-0.1-0.2c0-0.1-0.1-0.1-0.1-0.1c-0.1-0.1-0.2-0.1-0.3-0.1c-0.1,0-0.2,0.1-0.3,0.2
					c-0.1,0.1-0.1,0.2-0.1,0.3C38.5,7.2,38.6,7.3,38.7,7.4z"/>
				<path class="st0" d="M44,14.8l0.1,0.2l-0.4,0.3l-2-2.8l0.4-0.3l0.4,0.5l1.1-0.8l0.3,0.4l-1.1,0.8l0.3,0.4l1.1-0.8l0.3,0.4
					L43.5,14l0.3,0.4l1.9-1.3l-1.4-1.9l0.4-0.3l1.5,2.2c0.1,0.1,0.1,0.1,0.1,0.2c0,0.1,0,0.1-0.1,0.2L44,14.8z"/>
			</g>
		</g>
		<g>
			<g>
				<path class="st0" d="M2.3,25l2.4,0l0,0.3l-1,0l0,0l1,0.8l0,0.3l-1.1-0.9l-1.3,0.9l0-0.4l1.2-0.8l0,0l-1.2,0L2.3,25z"/>
				<path class="st0" d="M4.7,27.8l0,0.3l-1.5,0.2c-0.5,0.1-0.6,0.2-0.6,0.5c0,0.3,0.2,0.4,0.7,0.4L4.9,29l0,0.3l-1.5,0.2
					c-0.7,0.1-0.9-0.1-1-0.6c-0.1-0.5,0.2-0.8,0.8-0.9L4.7,27.8z"/>
				<path class="st0" d="M5.7,32.4L3.4,33l-0.1-0.4L5,31.1l0,0l-2,0.5l-0.1-0.3l2.3-0.6l0.1,0.4l-1.7,1.4l0,0l2-0.5L5.7,32.4z"/>
				<path class="st0" d="M4.7,34.7L4.7,34.7c-0.4,0.2-0.4,0.4-0.3,0.6c0.1,0.2,0.3,0.3,0.5,0.2c0.5-0.2,0-1.2,0.7-1.4
					c0.4-0.2,0.7,0,0.9,0.4c0.2,0.4,0.1,0.7-0.4,0.9L6,35c0.2-0.1,0.4-0.2,0.2-0.5c-0.1-0.2-0.2-0.3-0.5-0.2c-0.5,0.2,0,1.2-0.7,1.5
					c-0.5,0.2-0.7-0.1-0.9-0.4c-0.3-0.6,0.2-0.9,0.4-0.9L4.7,34.7z"/>
				<path class="st0" d="M7.7,36.8l0.2,0.3L6.2,39l-0.2-0.3l0.4-0.4L6,37.5l-0.6,0.1l-0.2-0.3L7.7,36.8z M7.5,37.1L7.5,37.1
					l-1.3,0.3l0.4,0.6L7.5,37.1z"/>
				<path class="st0" d="M10.1,40.1l-1.8,1.5L8,41.3l1-2l0,0l-1.6,1.3l-0.2-0.2L9,38.8l0.3,0.3l-1,2l0,0l1.6-1.3L10.1,40.1z"/>
				<path class="st0" d="M13.9,43.4l-1.4,1.9l-0.3-0.2l0.5-2.2l0,0l-1.2,1.6l-0.2-0.2l1.4-1.9l0.3,0.3l-0.5,2.2l0,0l1.2-1.6
					L13.9,43.4z"/>
				<path class="st0" d="M15.6,44.5l0.3,0.2l-0.5,2.4L15.2,47l0.1-0.6l-0.8-0.4l-0.4,0.4l-0.3-0.1L15.6,44.5z M15.6,44.8L15.6,44.8
					l-0.9,0.9l0.7,0.4L15.6,44.8z"/>
				<path class="st0" d="M18.8,46l-0.1,0.2L18.2,46l-0.8,2l-0.3-0.1l0.8-2l-0.6-0.2l0.1-0.2L18.8,46z"/>
				<path class="st0" d="M19.8,48.7l-0.3-0.1l0.6-2.3l0.3,0.1L19.8,48.7z"/>
				<path class="st0" d="M21.7,48.3l0.1-0.8c0.1-0.5,0.4-0.7,0.9-0.7c0.5,0.1,0.7,0.4,0.6,0.9l-0.1,0.8c-0.1,0.6-0.4,0.9-0.9,0.8
					C21.8,49.2,21.6,48.9,21.7,48.3z M22.9,48.5l0.1-0.8c0.1-0.5-0.3-0.6-0.4-0.6c-0.1,0-0.4,0-0.5,0.4L22,48.3
					C22,48.9,22.1,49,22.4,49C22.7,49.1,22.8,49,22.9,48.5z"/>
				<path class="st0" d="M26.6,47.2l0,2.4l-0.4,0l-0.9-2.1l0,0l0,2.1l-0.3,0l0-2.4l0.4,0l0.9,2h0l0-2L26.6,47.2z"/>
				<path class="st0" d="M28.6,47l0.4-0.1l1.1,2.2l-0.3,0l-0.2-0.5l-0.9,0.1l-0.1,0.6l-0.3,0L28.6,47z M28.8,47.2L28.8,47.2
					l-0.2,1.3l0.8-0.1L28.8,47.2z"/>
				<path class="st0" d="M31.7,48.8L31,46.5l0.3-0.1l0.6,2l0.8-0.2l0.1,0.3L31.7,48.8z"/>
				<path class="st0" d="M35,45.1l0.3-0.1l0.7,1.3c0.2,0.5,0.4,0.5,0.7,0.4c0.3-0.1,0.3-0.3,0.1-0.8l-0.7-1.3l0.3-0.1l0.7,1.3
					c0.3,0.6,0.2,0.9-0.2,1.2c-0.4,0.2-0.8,0.1-1.1-0.5L35,45.1z"/>
				<path class="st0" d="M38.9,42.7l1.4,1.9L40,44.9l-2-1.1l0,0l1.2,1.7L39,45.6l-1.4-1.9l0.3-0.2l1.9,1.1l0,0l-1.2-1.6L38.9,42.7z"
					/>
				<path class="st0" d="M42,43.2l-0.2,0.2l-1.6-1.7l0.2-0.2L42,43.2z"/>
				<path class="st0" d="M43.8,41.3l-0.2,0.3l-2.2-1l0.2-0.2l1.9,1l0,0l-1.2-1.8l0.2-0.2L43.8,41.3z"/>
				<path class="st0" d="M45.2,39.5l-2-1.3l0.7-1l0.2,0.1l-0.5,0.8l0.6,0.4l0.5-0.7l0.2,0.1l-0.5,0.7l0.7,0.5l0.5-0.8l0.2,0.1
					L45.2,39.5z"/>
				<path class="st0" d="M45.9,36.2l1,0.5L46.8,37l-2.1-1.1l0.4-0.7c0.2-0.4,0.5-0.4,0.8-0.2c0.2,0.1,0.4,0.4,0.3,0.6l0,0
					c0.2-0.2,0.3-0.3,0.7-0.1c0.1,0,0.4,0.2,0.6,0.2L47.3,36c-0.2,0-0.5-0.2-0.7-0.3c-0.3-0.1-0.4,0.1-0.4,0.2L45.9,36.2z
					 M45.7,36.1l0.2-0.4c0.1-0.2,0-0.4-0.2-0.5c-0.2-0.1-0.4-0.1-0.5,0.1L45,35.8L45.7,36.1z"/>
				<path class="st0" d="M47.5,33.7L47.5,33.7c0.4,0.1,0.5,0,0.6-0.2c0.1-0.2,0-0.4-0.2-0.5c-0.5-0.2-0.8,0.9-1.5,0.6
					c-0.4-0.1-0.5-0.5-0.4-0.9c0.1-0.4,0.4-0.6,0.9-0.4l-0.1,0.3c-0.2-0.1-0.4-0.1-0.5,0.2c-0.1,0.2,0,0.4,0.2,0.5
					c0.5,0.2,0.8-0.9,1.5-0.6c0.5,0.2,0.5,0.5,0.4,0.9c-0.2,0.7-0.7,0.5-0.9,0.4L47.5,33.7z"/>
				<path class="st0" d="M49,30.8l-0.1,0.3l-2.3-0.5l0.1-0.3L49,30.8z"/>
				<path class="st0" d="M47.1,27.5l0.3,0l-0.1,0.6l2.1,0.2l0,0.3l-2.1-0.2L47.2,29l-0.3,0L47.1,27.5z"/>
				<path class="st0" d="M47.1,25.1l0-0.3l1.5,0.6l0.9,0l0,0.3l-0.9,0l-1.5,0.7l0-0.3l1.1-0.5L47.1,25.1z"/>
			</g>
		</g>
		<g>
			<circle class="st0" cx="47.2" cy="19.5" r="0.6"/>
			<circle class="st0" cx="4.5" cy="19.5" r="0.6"/>
		</g>
		<path class="st0" d="M25.9,51.8C11.6,51.8,0,40.2,0,25.9S11.6,0,25.9,0s25.9,11.6,25.9,25.9S40.2,51.8,25.9,51.8z M25.9,0.7
			C12,0.7,0.7,12,0.7,25.9S12,51.1,25.9,51.1s25.2-11.3,25.2-25.2S39.8,0.7,25.9,0.7z"/>
		<path class="st0" d="M25.9,45.4c-10.8,0-19.5-8.8-19.5-19.5S15.1,6.4,25.9,6.4s19.5,8.8,19.5,19.5S36.7,45.4,25.9,45.4z M25.9,6.7
			c-10.6,0-19.2,8.6-19.2,19.2s8.6,19.2,19.2,19.2s19.2-8.6,19.2-19.2S36.5,6.7,25.9,6.7z"/>
		<g>
			<path class="st0" d="M14.5,32.3l-4.1-4v4H8.7v-8.2h1.6v3.9l4-3.9h2.2l-4.2,4l4.3,4.2H14.5z"/>
			<path class="st0" d="M33.2,32.5c-0.2,0-0.3,0-0.5-0.1c-0.1-0.1-0.3-0.2-0.4-0.3L27,26.5v5.8h-1.5v-7.6c0-0.3,0.1-0.4,0.2-0.6
				C25.8,24,26,24,26.3,24c0.2,0,0.3,0,0.5,0.1c0.1,0.1,0.2,0.1,0.3,0.2l5.4,5.8v-5.9H34v7.6c0,0.3-0.1,0.5-0.2,0.6
				C33.7,32.5,33.5,32.5,33.2,32.5z"/>
			<path class="st1" d="M8.7,24c2-1.7,7.4-4.1,17.1-4.1c9.8,0,15.2,2.5,17.2,4.1v-2.7c0-0.2-0.1-0.4-0.3-0.5
				c-2.7-1.9-8.1-3.6-16.9-3.6c-8.8,0-14.2,1.8-16.9,3.7c-0.2,0.1-0.3,0.3-0.3,0.5V24z"/>
			<path class="st0" d="M24.9,30.7v-1.4c0-0.9-0.7-1.7-1.7-1.7H19c-0.4,0-0.7-0.3-0.7-0.7v-0.8c0-0.4,0.3-0.7,0.7-0.7h5.9v-1.3h-6.5
				h0c-0.9,0-1.7,0.8-1.7,1.7v1.4c0,0.9,0.7,1.7,1.7,1.7h0h4.2c0.4,0,0.7,0.3,0.7,0.7v0.8c0,0.4-0.3,0.7-0.7,0.7h-5.9v1.3h6.5
				C24.2,32.3,24.9,31.6,24.9,30.7z"/>
			<g>
				<g>
					<path class="st0" d="M41.4,24.2v6c0,0.4-0.3,0.7-0.7,0.7h-0.9v1.6h1.6c0.9,0,1.7-0.8,1.7-1.7v-6.5H41.4z"/>
					<path class="st0" d="M34.7,24.2v6.5c0,0.9,0.7,1.7,1.7,1.7h1.6v-1.6H37c-0.4,0-0.7-0.3-0.7-0.7v-6H34.7z"/>
				</g>
				<rect x="37.6" y="30.8" class="st0" width="2.5" height="1.6"/>
			</g>
		</g>
	</g>
	<g>
		<g>
			<path class="st0" d="M91.5,19h1.2v2.8h-8.1v4.6h-3.3v-4.6h-8.6V19h15.5v-5.9H73.9v-2.8h15.8c0.5,0,0.9,0.1,1.2,0.3
				c0.3,0.2,0.4,0.6,0.4,1.1V19z M77.2,28.4h14.4v2.8h-16c-0.5,0-0.9-0.1-1.2-0.4c-0.3-0.2-0.5-0.6-0.5-1.1v-6.3h3.3V28.4z"/>
			<path class="st0" d="M103.3,14.7l-4.9,6.8l-2.8-2.2l6.6-8.5c0.1-0.1,0.2-0.3,0.4-0.4c0.1-0.1,0.2-0.2,0.4-0.3
				c0.1-0.1,0.3-0.1,0.4-0.1c0.2,0,0.4,0.1,0.6,0.2c0.2,0.2,0.4,0.4,0.6,0.6l6.7,8.5l-2.7,2.2L103.3,14.7z M115.9,14.3h3v2.8h-3
				v14.1h-15.1c-0.3,0-0.6-0.1-0.8-0.4c-0.3-0.3-0.4-0.6-0.4-1.1v-6.2h3.3v4.9h9.7V10.4h3.3V14.3z"/>
			<path class="st0" d="M137.7,10.4h3.3v20.8h-3.3V17.7H136v13.5h-3.2v-7.3h-10.5c-1.2,0-1.8-0.6-1.8-1.7V10.4h10.3v2.8h-7v8h9V10.4
				h3.2v4.6h1.6V10.4z"/>
			<path class="st0" d="M144.3,13.7V11h5V9.2h3.3V11h5v2.7h-1.9c0.3,0.4,0.6,0.9,0.8,1.4c0.2,0.5,0.3,1.1,0.3,1.6
				c0,0.7-0.1,1.3-0.4,1.9c-0.3,0.6-0.7,1.2-1.2,1.6c-0.5,0.5-1.1,0.9-1.9,1.2c-0.7,0.3-1.5,0.4-2.4,0.4c-0.8,0-1.6-0.1-2.3-0.4
				c-0.7-0.3-1.3-0.7-1.8-1.1c-0.5-0.5-0.9-1-1.2-1.6c-0.3-0.6-0.4-1.3-0.4-1.9c0-0.6,0.1-1.1,0.3-1.6c0.2-0.5,0.4-1,0.8-1.4H144.3z
				 M163.9,13.9h3.1v2.8h-3.1v14.5h-3.3v-5.5H147v-2.8h13.6V10.4h3.3V13.9z M150.8,19.3c0.4,0,0.8-0.1,1.1-0.2
				c0.3-0.1,0.6-0.3,0.9-0.6c0.2-0.2,0.4-0.5,0.6-0.8c0.1-0.3,0.2-0.7,0.2-1c0-0.4-0.1-0.7-0.2-1.1c-0.1-0.3-0.3-0.6-0.6-0.9
				c-0.3-0.2-0.6-0.4-0.9-0.6s-0.7-0.2-1.1-0.2c-0.8,0-1.4,0.3-1.9,0.8c-0.5,0.5-0.7,1.2-0.7,1.9c0,0.7,0.2,1.4,0.7,1.9
				C149.3,19.1,150,19.3,150.8,19.3z"/>
			<path class="st0" d="M187.1,28.4h1.5v2.8h-20v-2.8h3.7v-9.3h3.2v9.3h2.5v-9.3h3.2v9.3h2.6V13.1H170v-2.8h15.5
				c0.6,0,1,0.1,1.2,0.3c0.3,0.2,0.4,0.6,0.4,1.2V28.4z"/>
		</g>
		<g>
			<path class="st0" d="M68.1,14.1h0.4v1.3h-3.9v1h3.5v3.9h-1.5v-2.6h-7v-1.3h3.5v-1h-3.9v-1.3h7.4v-2.4h-7v-1.3h7.8
				c0.2,0,0.4,0.1,0.5,0.2s0.2,0.3,0.2,0.5V14.1z"/>
			<path class="st0" d="M68.1,31.2h-6.9c-0.2,0-0.4-0.1-0.5-0.2c-0.1-0.1-0.2-0.3-0.2-0.5v-3.6H62v0.8h4.6v-1.3h-6.2
				c-0.5,0-0.8-0.2-0.8-0.7v-2.4h4v-0.6h-4v-1.3h5.6v3.1h-4.1v0.6h5.5v-3.7h1.5V31.2z M66.6,29H62v0.9h4.6V29z"/>
		</g>
		<g>
			<polygon class="st0" points="63.7,35.1 62.6,35.1 60.6,37.7 60.6,35.1 59.6,35.1 59.6,41.4 60.6,41.4 60.6,38.4 62.6,41.4 
				63.8,41.4 61.4,38 			"/>
			<path class="st0" d="M67.9,39.2c0,0.6-0.1,1-0.3,1.2c-0.2,0.2-0.4,0.3-0.8,0.3c-0.4,0-0.6-0.1-0.8-0.3c-0.2-0.2-0.3-0.6-0.3-1.2
				v-4.1h-1v4c0,0.9,0.2,1.5,0.5,1.9c0.3,0.4,0.8,0.6,1.5,0.6c0.7,0,1.2-0.2,1.5-0.6c0.3-0.4,0.5-1,0.5-1.9v-4h-1V39.2z"/>
			<polygon class="st0" points="74.2,40.1 72,35.1 70.7,35.1 70.7,41.4 71.6,41.4 71.6,36.4 73.9,41.4 73.9,41.4 75.1,41.4 
				75.1,35.1 74.2,35.1 			"/>
			<path class="st0" d="M79.2,37.9c-0.5-0.2-0.8-0.4-1-0.6c-0.2-0.2-0.4-0.4-0.4-0.7c0-0.2,0.1-0.4,0.2-0.6c0.2-0.1,0.4-0.2,0.6-0.2
				c0.6,0,0.9,0.3,0.9,1V37h1v-0.3c0-0.5-0.2-0.9-0.5-1.2c-0.3-0.3-0.8-0.4-1.3-0.4c-0.6,0-1.1,0.2-1.4,0.5
				c-0.3,0.3-0.5,0.7-0.5,1.3c0,0.4,0.1,0.7,0.3,1c0.2,0.3,0.6,0.6,1.2,0.9c0.5,0.2,0.8,0.4,1,0.6c0.2,0.2,0.3,0.4,0.3,0.6
				c0,0.3-0.1,0.5-0.3,0.7c-0.2,0.2-0.4,0.2-0.7,0.2c-0.3,0-0.6-0.1-0.7-0.3c-0.2-0.2-0.2-0.4-0.2-0.7v-0.3h-1v0.3
				c0,0.6,0.2,1,0.5,1.3c0.3,0.3,0.8,0.5,1.4,0.5c1.4,0,2.1-0.6,2.1-1.8c0-0.4-0.1-0.8-0.4-1.1C80.1,38.4,79.7,38.2,79.2,37.9z"/>
			<path class="st0" d="M83.7,35.1l-1.9,6.2l0,0.1h1l0.5-1.5h2.2l0.4,1.5h1.1l-2-6.3H83.7z M85.1,39.1h-1.7l0.8-2.9L85.1,39.1z"/>
			<polygon class="st0" points="91.6,40.1 89.4,35.1 88.1,35.1 88.1,41.4 89,41.4 89,36.4 91.2,41.4 91.3,41.4 92.5,41.4 92.5,35.1 
				91.6,35.1 			"/>
			<polygon class="st0" points="100.4,40.1 98.1,35.1 96.8,35.1 96.8,41.4 97.7,41.4 97.7,36.4 100,41.4 100,41.4 101.2,41.4 
				101.2,35.1 100.4,35.1 			"/>
			<path class="st0" d="M104.4,35.1l-1.9,6.2l0,0.1h1l0.5-1.5h2.2l0.4,1.5h1.1l-2-6.3H104.4z M105.8,39.1h-1.7l0.8-2.9L105.8,39.1z"
				/>
			<polygon class="st0" points="108.3,36 109.9,36 109.9,41.4 110.9,41.4 110.9,36 112.5,36 112.5,35.1 108.3,35.1 			"/>
			<rect x="113.8" y="35.1" class="st0" width="1" height="6.3"/>
			<path class="st0" d="M118.6,35c-0.7,0-1.2,0.2-1.5,0.6c-0.3,0.4-0.5,0.9-0.5,1.5v2c0,0.8,0.2,1.4,0.5,1.8
				c0.3,0.4,0.8,0.6,1.6,0.6c0.7,0,1.2-0.2,1.5-0.6c0.3-0.4,0.5-1,0.5-1.8v-2c0-0.6-0.2-1.2-0.5-1.5C119.8,35.2,119.3,35,118.6,35z
				 M119.7,39.2c0,0.6-0.1,1-0.3,1.2c-0.2,0.2-0.4,0.3-0.8,0.3c-0.4,0-0.7-0.1-0.8-0.4c-0.2-0.3-0.2-0.6-0.2-1.2v-2.1
				c0-0.8,0.3-1.3,1-1.3c0.3,0,0.6,0.1,0.8,0.3c0.2,0.2,0.3,0.5,0.3,0.9V39.2z"/>
			<polygon class="st0" points="126,40.1 123.7,35.1 122.5,35.1 122.5,41.4 123.3,41.4 123.3,36.4 125.6,41.4 126.9,41.4 
				126.9,35.1 126,35.1 			"/>
			<path class="st0" d="M130.1,35.1l-2,6.3h1l0.5-1.5h2.2l0.4,1.5h1.1l-2-6.3H130.1z M131.5,39.1h-1.7l0.8-2.9L131.5,39.1z"/>
			<polygon class="st0" points="135.4,35.1 134.5,35.1 134.5,41.4 137.7,41.4 137.7,40.6 135.4,40.6 			"/>
			<path class="st0" d="M144.3,39.2c0,0.6-0.1,1-0.3,1.2c-0.2,0.2-0.4,0.3-0.8,0.3c-0.4,0-0.6-0.1-0.8-0.3c-0.2-0.2-0.3-0.6-0.3-1.2
				v-4.1h-1v4c0,0.9,0.2,1.5,0.5,1.9c0.3,0.4,0.8,0.6,1.5,0.6c0.7,0,1.2-0.2,1.5-0.6c0.3-0.4,0.5-1,0.5-1.9v-4h-1V39.2z"/>
			<polygon class="st0" points="150.7,40.1 148.4,35.2 148.4,35.1 147.2,35.1 147.2,41.4 148,41.4 148,36.4 150.3,41.4 151.5,41.4 
				151.5,35.1 150.7,35.1 			"/>
			<rect x="153.5" y="35.1" class="st0" width="1" height="6.3"/>
			<polygon class="st0" points="158.1,40.3 156.8,35.1 155.7,35.1 157.6,41.3 157.6,41.4 158.7,41.4 160.5,35.1 159.5,35.1 			"/>
			<polygon class="st0" points="162.6,38.6 164.8,38.6 164.8,37.8 162.6,37.8 162.6,36 165,36 165,35.1 161.6,35.1 161.6,41.4 
				165.1,41.4 165.1,40.6 162.6,40.6 			"/>
			<path class="st0" d="M170.1,39.4c0-0.5-0.1-0.8-0.3-1c-0.1-0.1-0.3-0.2-0.4-0.3c0.6-0.2,0.9-0.7,0.9-1.4c0-0.5-0.1-0.9-0.4-1.2
				c-0.3-0.3-0.7-0.4-1.2-0.4h-2.2v6.3h1v-2.8h0.8c0.5,0,0.8,0.2,0.8,0.7c0,0.4,0,0.8,0.1,1.2c0,0.4,0.1,0.7,0.2,0.8l0,0h1l0-0.1
				C170.2,40.8,170.1,40.2,170.1,39.4z M169,37.5c-0.1,0.2-0.3,0.2-0.5,0.2h-1.1V36h1.1c0.2,0,0.4,0.1,0.5,0.2
				c0.1,0.2,0.2,0.4,0.2,0.6C169.3,37.1,169.2,37.3,169,37.5z"/>
			<path class="st0" d="M174.1,37.9c-0.5-0.2-0.8-0.4-1-0.6c-0.2-0.2-0.4-0.4-0.4-0.7c0-0.2,0.1-0.4,0.2-0.6
				c0.2-0.1,0.4-0.2,0.6-0.2c0.6,0,0.9,0.3,0.9,1V37h1v-0.3c0-0.5-0.2-0.9-0.5-1.2c-0.3-0.3-0.8-0.4-1.3-0.4c-0.6,0-1.1,0.2-1.4,0.5
				c-0.3,0.3-0.5,0.7-0.5,1.3c0,0.4,0.1,0.7,0.3,1c0.2,0.3,0.6,0.6,1.2,0.9c0.5,0.2,0.8,0.4,1,0.6c0.2,0.2,0.3,0.4,0.3,0.6
				c0,0.3-0.1,0.5-0.3,0.7c-0.2,0.2-0.4,0.2-0.7,0.2c-0.3,0-0.6-0.1-0.7-0.3c-0.2-0.2-0.2-0.4-0.2-0.7v-0.3h-1v0.3
				c0,0.6,0.2,1,0.5,1.3c0.3,0.3,0.8,0.5,1.4,0.5c1.4,0,2.1-0.6,2.1-1.8c0-0.4-0.1-0.8-0.4-1.1C174.9,38.4,174.6,38.2,174.1,37.9z"
				/>
			<rect x="177.2" y="35.1" class="st0" width="1" height="6.3"/>
			<polygon class="st0" points="179.5,36 181.1,36 181.1,41.4 182.1,41.4 182.1,36 183.7,36 183.7,35.1 179.5,35.1 			"/>
			<polygon class="st0" points="187.7,35.1 186.5,37.9 185.3,35.2 185.3,35.1 184.3,35.1 186,39 186,41.4 186.9,41.4 186.9,39 
				188.6,35.1 			"/>
		</g>
	</g>
</g>
</svg>
